name rise45.9887peak57.8056fall74.9286.mot
datacolumns 19
datarows 12
range 23.22158500000000 23.23991100000000
endheader
time	ground_force1_vx	ground_force1_vy	ground_force1_vz	ground_force1_px	ground_force1_py	ground_force1_pz	ground_force2_vx	ground_force2_vy	ground_force2_vz	ground_force2_px	ground_force2_py	ground_force2_pz	ground_torque1_x	ground_torque1_y	ground_torque1_z	ground_torque2_x	ground_torque2_y	ground_torque2_z	
23.22158500000000	7.59803500000000	706.95326999999997	43.78072200000000	0.15804600000000	0.00000000000000	0.13217000000000	0.00000000000000	0.00000000000000	0.00000000000000	0.00000000000000	0.00000000000000	0.00000000000000	0.00000000000000	12.49795300000000	0.00000000000000	0.00000000000000	0.00000000000000	0.00000000000000	
23.22325100000000	7.15478900000000	708.28476599999999	43.82136700000000	0.15694700000000	0.00000000000000	0.13219500000000	0.00000000000000	0.00000000000000	0.00000000000000	0.00000000000000	0.00000000000000	0.00000000000000	0.00000000000000	12.57400800000000	0.00000000000000	0.00000000000000	0.00000000000000	0.00000000000000	
23.22491200000000	6.70139100000000	709.67393800000002	43.87377500000000	0.15583100000000	0.00000000000000	0.13222200000000	0.00000000000000	0.00000000000000	0.00000000000000	0.00000000000000	0.00000000000000	0.00000000000000	0.00000000000000	12.65509000000000	0.00000000000000	0.00000000000000	0.00000000000000	0.00000000000000	
23.22657800000000	6.23774900000000	711.11929099999998	43.93778700000000	0.15469900000000	0.00000000000000	0.13225200000000	0.00000000000000	0.00000000000000	0.00000000000000	0.00000000000000	0.00000000000000	0.00000000000000	0.00000000000000	12.74111100000000	0.00000000000000	0.00000000000000	0.00000000000000	0.00000000000000	
23.22824400000000	5.76379600000000	712.61927200000002	44.01323700000000	0.15355300000000	0.00000000000000	0.13228300000000	0.00000000000000	0.00000000000000	0.00000000000000	0.00000000000000	0.00000000000000	0.00000000000000	0.00000000000000	12.83197600000000	0.00000000000000	0.00000000000000	0.00000000000000	0.00000000000000	
23.22991800000000	5.27949200000000	714.17226900000003	44.09994400000000	0.15239200000000	0.00000000000000	0.13231600000000	0.00000000000000	0.00000000000000	0.00000000000000	0.00000000000000	0.00000000000000	0.00000000000000	0.00000000000000	12.92758300000000	0.00000000000000	0.00000000000000	0.00000000000000	0.00000000000000	
23.23157700000000	4.78482800000000	715.77660800000001	44.19771900000000	0.15122000000000	0.00000000000000	0.13235100000000	0.00000000000000	0.00000000000000	0.00000000000000	0.00000000000000	0.00000000000000	0.00000000000000	0.00000000000000	13.02782700000000	0.00000000000000	0.00000000000000	0.00000000000000	0.00000000000000	
23.23324200000000	4.27981500000000	717.43055700000002	44.30636400000000	0.15003800000000	0.00000000000000	0.13238700000000	0.00000000000000	0.00000000000000	0.00000000000000	0.00000000000000	0.00000000000000	0.00000000000000	0.00000000000000	13.13259400000000	0.00000000000000	0.00000000000000	0.00000000000000	0.00000000000000	
23.23491000000000	3.76449300000000	719.13231900000005	44.42566800000000	0.14884700000000	0.00000000000000	0.13242500000000	0.00000000000000	0.00000000000000	0.00000000000000	0.00000000000000	0.00000000000000	0.00000000000000	0.00000000000000	13.24176500000000	0.00000000000000	0.00000000000000	0.00000000000000	0.00000000000000	
23.23657700000000	3.23892300000000	720.88003900000001	44.55541300000000	0.14764900000000	0.00000000000000	0.13246400000000	0.00000000000000	0.00000000000000	0.00000000000000	0.00000000000000	0.00000000000000	0.00000000000000	0.00000000000000	13.35521600000000	0.00000000000000	0.00000000000000	0.00000000000000	0.00000000000000	
23.23825000000000	2.70318800000000	722.67179799999997	44.69536900000000	0.14644400000000	0.00000000000000	0.13250400000000	0.00000000000000	0.00000000000000	0.00000000000000	0.00000000000000	0.00000000000000	0.00000000000000	0.00000000000000	13.47281800000000	0.00000000000000	0.00000000000000	0.00000000000000	0.00000000000000	
23.23991100000000	2.15739300000000	724.50561600000003	44.84529800000000	0.14523600000000	0.00000000000000	0.13254500000000	0.00000000000000	0.00000000000000	0.00000000000000	0.00000000000000	0.00000000000000	0.00000000000000	0.00000000000000	13.59443500000000	0.00000000000000	0.00000000000000	0.00000000000000	0.00000000000000	
